<?xml version="1.0"?>
<svg xmlns="http://www.w3.org/2000/svg" viewBox="0 0 64 64" width="512" height="512"><g id="Analysis_database" data-name="Analysis database"><path d="M4,20c0,1.113,1.031,2.073,1.9,2.683C9.562,25.307,17.451,27,26,27a55.8,55.8,0,0,0,12.848-1.4A12.022,12.022,0,0,1,48,18.181v-3.54C44.666,17.605,37.2,20,26,20S7.334,17.605,4,14.641Z"/><path d="M50,60a2,2,0,0,0,2-2V48H48V58A2,2,0,0,0,50,60Z"/><path d="M26,60c8.558,0,16.305-1.663,20-4.257V49.107C41.67,51.534,34.274,53,26,53c-11.195,0-18.666-2.4-22-5.359V53C4,56.311,13.035,60,26,60Z"/><path d="M26,34a56.274,56.274,0,0,0,12.324-1.277,11.576,11.576,0,0,1-.112-4.925A59.292,59.292,0,0,1,26,29c-8.632,0-16.417-1.627-20.633-4.273A3.233,3.233,0,0,0,4,27C4,30.311,13.035,34,26,34Z"/><path d="M26,43c6.852,0,13.335-1.094,17.533-2.908a12.056,12.056,0,0,1-4.6-5.458A58.11,58.11,0,0,1,26,36C14.805,36,7.334,33.6,4,30.641V36c0,1.319,1.414,2.436,2.6,3.14C10.557,41.522,17.989,43,26,43Z"/><path d="M47,46v-4.4c-.226-.058-.452-.114-.673-.185-.024-.009-.388-.141-.544-.2C41.374,43.59,34.041,45,26,45c-8.139,0-15.49-1.429-19.88-3.837C5.064,41.865,4,42.856,4,44c0,3.311,9.035,7,22,7,8.6,0,16.39-1.681,20.06-4.3A.989.989,0,0,1,47,46Z"/><path d="M50,42c-.338,0-.669-.023-1-.051V46h2V41.949C50.669,41.977,50.338,42,50,42Z"/><path d="M50,24a6,6,0,1,0,6,6A6.006,6.006,0,0,0,50,24Zm3,7a1,1,0,0,1-1-1,2,2,0,0,0-2-2,1,1,0,0,1,0-2,4,4,0,0,1,4,4A1,1,0,0,1,53,31Z"/><path d="M50,20A10,10,0,1,0,60,30,10.011,10.011,0,0,0,50,20Zm0,18a8,8,0,1,1,8-8A8.009,8.009,0,0,1,50,38Z"/><ellipse cx="26" cy="11" rx="22" ry="7"/></g></svg>
