<?xml version="1.0"?>
<svg xmlns="http://www.w3.org/2000/svg" viewBox="0 0 64 64" width="512" height="512"><g id="Anti_virus" data-name="Anti virus"><rect x="28" y="48" width="12" height="6"/><path d="M44,34a5,5,0,1,0-5-5A5.006,5.006,0,0,0,44,34Zm0-1H43a1,1,0,0,1,0-2h1a1,1,0,0,1,0,2Zm3-4a1,1,0,1,1-1,1A1,1,0,0,1,47,29Zm-2.707-1.707a1,1,0,0,1,1.414,1.414l-1,1a1,1,0,0,1-1.414-1.414ZM43,25a1,1,0,1,1-1,1A1,1,0,0,1,43,25Zm-3,4a1,1,0,1,1,1,1A1,1,0,0,1,40,29Z"/><path d="M20,57v3H48V57a1,1,0,0,0-1-1H21A1,1,0,0,0,20,57Z"/><path d="M5,27H29a1,1,0,0,0,1-1V10a1,1,0,0,0-1-1H5a1,1,0,0,0-1,1V26A1,1,0,0,0,5,27Zm5-11a1,1,0,0,1,1-1h3V12a1,1,0,0,1,1-1h4a1,1,0,0,1,1,1v3h3a1,1,0,0,1,1,1v4a1,1,0,0,1-1,1H20v3a1,1,0,0,1-1,1H15a1,1,0,0,1-1-1V21H11a1,1,0,0,1-1-1Z"/><path d="M24,7H22V5a1,1,0,0,0-1-1H13a1,1,0,0,0-1,1V7H10V5a3,3,0,0,1,3-3h8a3,3,0,0,1,3,3Z"/><path d="M16,20v3h2V20a1,1,0,0,1,1-1h3V17H19a1,1,0,0,1-1-1V13H16v3a1,1,0,0,1-1,1H12v2h3A1,1,0,0,1,16,20Z"/><path d="M60,45V13a1,1,0,0,0-1-1H32v2H57a1,1,0,0,1,1,1V41a1,1,0,0,1-1,1H11a1,1,0,0,1-1-1V29H8V45a1,1,0,0,0,1,1H59A1,1,0,0,0,60,45Z"/><path d="M12,29V40H56V16H32V26a3,3,0,0,1-3,3Zm20.858,5.124,4.64-2.548A6.931,6.931,0,0,1,37.08,30H35a1,1,0,0,1,0-2h2.08a6.919,6.919,0,0,1,.425-1.595L34.84,24.866a1,1,0,1,1,1-1.732l2.668,1.54A7.045,7.045,0,0,1,39.69,23.5l-2.567-4.675a1,1,0,0,1,1.754-.963L41.424,22.5A6.982,6.982,0,0,1,43,22.08V19a1,1,0,0,1,2,0v3.08a6.962,6.962,0,0,1,1.687.458l3.506-4.789a1,1,0,1,1,1.614,1.182l-3.4,4.639a7.061,7.061,0,0,1,1.082,1.1l2.668-1.54a1,1,0,1,1,1,1.732L50.5,26.405A6.919,6.919,0,0,1,50.92,28H53a1,1,0,0,1,0,2H50.92A6.919,6.919,0,0,1,50.5,31.6l2.665,1.539a1,1,0,1,1-1,1.732l-2.668-1.54a7.067,7.067,0,0,1-1.166,1.166l1.54,2.668a1,1,0,1,1-1.732,1L46.6,35.495A6.919,6.919,0,0,1,45,35.92V37a1,1,0,0,1-2,0V35.92a6.919,6.919,0,0,1-1.595-.425L39.866,38.16a1,1,0,0,1-1.732-1l1.54-2.668A7.083,7.083,0,0,1,38.5,33.31l-4.675,2.566a.99.99,0,0,1-.48.124,1,1,0,0,1-.483-1.876ZM18,37H16V35h2Zm0-4H16V31h2Zm4,4H20V35h2Zm4,0H24V35h2Zm4,0H28V35h2Z"/></g></svg>
