<svg height="512" viewBox="0 0 64 64" width="512" xmlns="http://www.w3.org/2000/svg"><g id="API"><path d="m24.161 20h-1.322l-1.412 8h4.146z"/><path d="m39 23a3 3 0 0 0 -3-3h-3v6h3a3 3 0 0 0 3-3z"/><path d="m26 48h12v6h-12z"/><path d="m18 57v3h28v-3a1 1 0 0 0 -1-1h-26a1 1 0 0 0 -1 1z"/><path d="m60 45v-34a1 1 0 0 0 -1-1h-54a1 1 0 0 0 -1 1v34a1 1 0 0 0 1 1h54a1 1 0 0 0 1-1zm-2-4a1 1 0 0 1 -1 1h-50a1 1 0 0 1 -1-1v-28a1 1 0 0 1 1-1h50a1 1 0 0 1 1 1z"/><path d="m8 40h48v-26h-48zm35-21a1 1 0 0 1 2 0v17a1 1 0 0 1 -2 0zm-12 0a1 1 0 0 1 1-1h4a5 5 0 0 1 0 10h-3v8a1 1 0 0 1 -2 0zm-9.984-.174a1 1 0 0 1 .984-.826h3a1 1 0 0 1 .984.826l3 17a1 1 0 0 1 -.81 1.159 1.043 1.043 0 0 1 -.174.015 1 1 0 0 1 -.983-.826l-1.091-6.174h-4.852l-1.09 6.174a1 1 0 1 1 -1.968-.348z"/></g></svg>