<svg height="512" viewBox="0 0 64 64" width="512" xmlns="http://www.w3.org/2000/svg"><g id="Cloud_server" data-name="Cloud server"><circle cx="42" cy="52" r="1"/><path d="m46 34h-28a1 1 0 0 0 -1 1v6a1 1 0 0 0 1 1h28a1 1 0 0 0 1-1v-6a1 1 0 0 0 -1-1zm-25 6h-2v-4h2zm4 0h-2v-4h2zm4 0h-2v-4h2zm4 0h-2v-4h2zm4 0h-2v-4h2zm5 1a3 3 0 1 1 3-3 3 3 0 0 1 -3 3z"/><path d="m46 48h-28a1 1 0 0 0 -1 1v6a1 1 0 0 0 1 1h28a1 1 0 0 0 1-1v-6a1 1 0 0 0 -1-1zm-25 6h-2v-4h2zm4 0h-2v-4h2zm4 0h-2v-4h2zm4 0h-2v-4h2zm4 0h-2v-4h2zm5 1a3 3 0 1 1 3-3 3 3 0 0 1 -3 3z"/><path d="m21 44h22v2h-22z"/><path d="m21 58h22v2h-22z"/><path d="m21 30h22v2h-22z"/><circle cx="42" cy="38" r="1"/><path d="m47 27v-6a1 1 0 0 0 -1-1h-28a1 1 0 0 0 -1 1v6a1 1 0 0 0 1 1h28a1 1 0 0 0 1-1zm-26-1h-2v-4h2zm4 0h-2v-4h2zm4 0h-2v-4h2zm4 0h-2v-4h2zm4 0h-2v-4h2zm5 1a3 3 0 1 1 3-3 3 3 0 0 1 -3 3z"/><path d="m51 18a1.094 1.094 0 0 1 -.81-.356 1.03 1.03 0 0 1 -.265-.814 4.959 4.959 0 0 0 -3.3-5.554 5.044 5.044 0 0 0 -2.778-.142 1 1 0 0 1 -1.121-.524 12.009 12.009 0 0 0 -21.454 0 1 1 0 0 1 -1.121.524 5.036 5.036 0 0 0 -2.778.142 4.96 4.96 0 0 0 -3.3 5.554 1 1 0 0 1 -.983 1.17 9 9 0 1 0 -.09 18h2v-1a3 3 0 0 1 3-3h1v-2h-1a3 3 0 0 1 -3-3v-6a3 3 0 0 1 3-3h28a3 3 0 0 1 3 3v6a3 3 0 0 1 -3 3h-1v2h1a3 3 0 0 1 3 3v1h2a9 9 0 0 0 0-18z"/><circle cx="42" cy="24" r="1"/></g></svg>