<?xml version="1.0"?>
<svg xmlns="http://www.w3.org/2000/svg" viewBox="0 0 64 64" width="512" height="512"><g id="Coding"><path d="M35,30a1,1,0,0,0-1,1v2a1,1,0,0,0,2,0V31A1,1,0,0,0,35,30Z"/><path d="M52,29.188V14H8V40H40V37a3,3,0,0,1,3-3h1V23.005a2.979,2.979,0,0,1,.882-2.124,2.893,2.893,0,0,1,2.127-.876,3.006,3.006,0,0,1,2.991,3v6.166A3.061,3.061,0,0,1,52,29.188ZM32,18h2v8H32ZM12,18h2v8H12Zm6,15a3,3,0,0,1-6,0V31a3,3,0,0,1,6,0ZM16,23V21a3,3,0,0,1,6,0v2a3,3,0,0,1-6,0ZM26,33a3,3,0,0,1-6,0V31a3,3,0,0,1,6,0Zm4,3H28V28h2Zm0-13a3,3,0,0,1-6,0V21a3,3,0,0,1,6,0Zm8,10a3,3,0,0,1-6,0V31a3,3,0,0,1,6,0Zm4-10a3,3,0,0,1-6,0V21a3,3,0,0,1,6,0Z"/><path d="M27,20a1,1,0,0,0-1,1v2a1,1,0,0,0,2,0V21A1,1,0,0,0,27,20Z"/><path d="M39,20a1,1,0,0,0-1,1v2a1,1,0,0,0,2,0V21A1,1,0,0,0,39,20Z"/><path d="M23,30a1,1,0,0,0-1,1v2a1,1,0,0,0,2,0V31A1,1,0,0,0,23,30Z"/><path d="M15,30a1,1,0,0,0-1,1v2a1,1,0,0,0,2,0V31A1,1,0,0,0,15,30Z"/><path d="M40,42.341V42H7a1,1,0,0,1-1-1V13a1,1,0,0,1,1-1H53a1,1,0,0,1,1,1V30.18a3.162,3.162,0,0,1,2,.019V11a1,1,0,0,0-1-1H5a1,1,0,0,0-1,1V45a1,1,0,0,0,1,1H40.326A20.969,20.969,0,0,1,40,42.341Z"/><path d="M19,20a1,1,0,0,0-1,1v2a1,1,0,0,0,2,0V21A1,1,0,0,0,19,20Z"/><path d="M15,57v3H41V56H16A1,1,0,0,0,15,57Z"/><path d="M60,35a.965.965,0,0,0-.287-.694A.976.976,0,0,0,59,34a1,1,0,0,0-1,1v4a1,1,0,0,1-2,0V33a.965.965,0,0,0-.287-.694A.976.976,0,0,0,55,32a1,1,0,0,0-1,1v4a1,1,0,0,1-2,0V32a.965.965,0,0,0-.287-.694A.976.976,0,0,0,51,31a1,1,0,0,0-1,1v3a1,1,0,0,1-2,0V23.005a1,1,0,0,0-1-1,.951.951,0,0,0-.709.292.992.992,0,0,0-.294.708V41a1,1,0,0,1-2,0V36H43a1,1,0,0,0-1,1v5.341A19.071,19.071,0,0,0,44.142,51.1l.465.9h12.78l.544-1.069A19.093,19.093,0,0,0,60,42.31Z"/><path d="M43,54v6H59V54H43Zm4,4H46a1,1,0,0,1,0-2h1a1,1,0,0,1,0,2Z"/><rect x="24" y="48" width="10" height="6"/><path d="M16,33a1,1,0,0,1-2,0V31a1,1,0,0,1,2,0Z"/></g></svg>
