<?xml version="1.0"?>
<svg xmlns="http://www.w3.org/2000/svg" viewBox="0 0 64 64" width="512" height="512"><g id="Combination"><path d="M43,5a1,1,0,0,0-1-1H22a1,1,0,0,0-1,1v9H43Zm-7,5H34.816a2.746,2.746,0,0,1-.117.285l.837.837-1.414,1.414-.837-.837a2.746,2.746,0,0,1-.285.117V13H31V11.816a2.746,2.746,0,0,1-.285-.117l-.837.837-1.414-1.414.837-.837A2.746,2.746,0,0,1,29.184,10H28V8h1.184a2.746,2.746,0,0,1,.117-.285l-.837-.837,1.414-1.414.837.837A2.746,2.746,0,0,1,31,6.184V5h2V6.184a2.746,2.746,0,0,1,.285.117l.837-.837,1.414,1.414-.837.837A2.746,2.746,0,0,1,34.816,8H36Z"/><circle cx="32" cy="9" r="1"/><path d="M22,18H42a1,1,0,0,0,1-1V16H21v1A1,1,0,0,0,22,18Z"/><path d="M38,23a1,1,0,0,0-1-1H33V20H31v2H27a1,1,0,0,0,0,2H37A1,1,0,0,0,38,23Z"/><path d="M21,59H17V57H15v2H11a1,1,0,0,0,0,2H21a1,1,0,0,0,0-2Z"/><path d="M53,59H49V57H47v2H43a1,1,0,0,0,0,2H53a1,1,0,0,0,0-2Z"/><path d="M26,41H6a1,1,0,0,0-1,1v9H27V42A1,1,0,0,0,26,41Zm-6,6H18.816a2.746,2.746,0,0,1-.117.285l.837.837-1.414,1.414-.837-.837a2.746,2.746,0,0,1-.285.117V50H15V48.816a2.746,2.746,0,0,1-.285-.117l-.837.837-1.414-1.414.837-.837A2.746,2.746,0,0,1,13.184,47H12V45h1.184a2.746,2.746,0,0,1,.117-.285l-.837-.837,1.414-1.414.837.837A2.746,2.746,0,0,1,15,43.184V42h2v1.184a2.746,2.746,0,0,1,.285.117l.837-.837,1.414,1.414-.837.837a2.746,2.746,0,0,1,.117.285H20Z"/><circle cx="16" cy="46" r="1"/><path d="M5,54a1,1,0,0,0,1,1H26a1,1,0,0,0,1-1V53H5Z"/><path d="M37,54a1,1,0,0,0,1,1H58a1,1,0,0,0,1-1V53H37Z"/><circle cx="48" cy="46" r="1"/><path d="M58,41H38a1,1,0,0,0-1,1v9H59V42A1,1,0,0,0,58,41Zm-6,6H50.816a2.746,2.746,0,0,1-.117.285l.837.837-1.414,1.414-.837-.837a2.746,2.746,0,0,1-.285.117V50H47V48.816a2.746,2.746,0,0,1-.285-.117l-.837.837-1.414-1.414.837-.837A2.746,2.746,0,0,1,45.184,47H44V45h1.184a2.746,2.746,0,0,1,.117-.285l-.837-.837,1.414-1.414.837.837A2.746,2.746,0,0,1,47,43.184V42h2v1.184a2.746,2.746,0,0,1,.285.117l.837-.837,1.414,1.414-.837.837a2.746,2.746,0,0,1,.117.285H52Z"/><circle cx="32" cy="33" r="2"/><circle cx="48" cy="33" r="2"/><circle cx="16" cy="33" r="2"/><path d="M15,35.816V40h2V35.816a2.809,2.809,0,0,1-2,0Z"/><path d="M32,30a2.962,2.962,0,0,1,1,.184V26H31v4.184A2.962,2.962,0,0,1,32,30Z"/><path d="M18.816,32a2.809,2.809,0,0,1,0,2H29.184a2.809,2.809,0,0,1,0-2Z"/><path d="M47,35.816V40h2V35.816a2.809,2.809,0,0,1-2,0Z"/><path d="M45.184,34a2.809,2.809,0,0,1,0-2H34.816a2.809,2.809,0,0,1,0,2Z"/></g></svg>
