<?xml version="1.0"?>
<svg xmlns="http://www.w3.org/2000/svg" viewBox="0 0 64 64" width="512" height="512"><g id="Config"><path d="M60,45V13a1,1,0,0,0-1-1H58V41a1,1,0,0,1-1,1H7a1,1,0,0,1-1-1V12H5a1,1,0,0,0-1,1V45a1,1,0,0,0,1,1H59A1,1,0,0,0,60,45Z"/><path d="M56,40V12H8V40h4V33a1,1,0,0,1,1-1h4.856a15.2,15.2,0,0,1,.606-1.465L15.032,27.1a1,1,0,0,1,0-1.413l5.65-5.65a1,1,0,0,1,1.413,0l3.439,3.43A15.2,15.2,0,0,1,27,22.856V18a1,1,0,0,1,1-1h8a1,1,0,0,1,1,1v4.856a15.587,15.587,0,0,1,1.466.606l3.438-3.43a1,1,0,0,1,1.413,0l5.65,5.65a1,1,0,0,1,0,1.413l-3.43,3.439A15.307,15.307,0,0,1,46.144,32H51a1,1,0,0,1,1,1v7Z"/><path d="M18,57v3H46V57a1,1,0,0,0-1-1H19A1,1,0,0,0,18,57Z"/><path d="M50,40V34H45.42a1,1,0,0,1-.957-.711,13.613,13.613,0,0,0-1.025-2.477,1,1,0,0,1,.174-1.178l3.235-3.243-4.238-4.238-3.243,3.235a1,1,0,0,1-1.179.174,13.376,13.376,0,0,0-2.475-1.024A1,1,0,0,1,35,23.58V19H29v4.58a1,1,0,0,1-.712.958,13.459,13.459,0,0,0-2.476,1.024,1,1,0,0,1-1.178-.174l-3.243-3.234-4.237,4.237,3.234,3.243a1,1,0,0,1,.174,1.178,13.459,13.459,0,0,0-1.024,2.476A1,1,0,0,1,18.58,34H14v6h9.535a9,9,0,1,1,16.93,0Z"/><rect x="26" y="48" width="12" height="6"/><path d="M56,5a1,1,0,0,0-1-1H9A1,1,0,0,0,8,5v5H56ZM12,8H11a1,1,0,0,1,0-2h1a1,1,0,0,1,0,2Zm5,0H16a1,1,0,0,1,0-2h1a1,1,0,0,1,0,2Zm5,0H21a1,1,0,0,1,0-2h1a1,1,0,0,1,0,2Z"/><path d="M32,30a7.008,7.008,0,0,0-7,7,6.9,6.9,0,0,0,.7,3h12.61a6.88,6.88,0,0,0,.7-3A7.008,7.008,0,0,0,32,30Z"/></g></svg>
