<?xml version="1.0"?>
<svg xmlns="http://www.w3.org/2000/svg" viewBox="0 0 64 64" width="512" height="512"><g id="Data_transfer" data-name="Data transfer"><path d="M17.293,26.707,14.586,24H12V36H26V27H18A1,1,0,0,1,17.293,26.707Z"/><path d="M43,57a1,1,0,0,0-1-1H16a1,1,0,0,0-1,1v3H43Z"/><path d="M56,32H51a1,1,0,0,1-.9-.553L49.382,30H48v6h8Z"/><path d="M5,46H40V42H7a1,1,0,0,1-1-1V13a1,1,0,0,1,1-1H51a1,1,0,0,1,1,1v5h2V11a1,1,0,0,0-1-1H5a1,1,0,0,0-1,1V45A1,1,0,0,0,5,46Z"/><path d="M60,44.019V24H42v4H40V21a3,3,0,0,1,3-3h7V14H8V40H40V38h2v6ZM46,29a1,1,0,0,1,1-1h3a1,1,0,0,1,.9.553L51.618,30H57a1,1,0,0,1,1,1v6a1,1,0,0,1-1,1H47a1,1,0,0,1-1-1ZM28,37a1,1,0,0,1-1,1H11a1,1,0,0,1-1-1V23a1,1,0,0,1,1-1h4a1,1,0,0,1,.707.293L18.414,25H27a1,1,0,0,1,1,1Zm12.878-.464a1,1,0,0,1-1.414-1.414L40.586,34H33.414l1.122,1.122a1,1,0,1,1-1.414,1.414l-2.829-2.829a1,1,0,0,1,0-1.414l2.829-2.829a1,1,0,0,1,1.414,1.414L33.414,32h7.172l-1.122-1.122a1,1,0,0,1,1.414-1.414l2.829,2.829a1,1,0,0,1,0,1.414Z"/><path d="M60,21a1,1,0,0,0-1-1H43a1,1,0,0,0-1,1v1H60Z"/><rect x="24" y="48" width="10" height="6"/><path d="M59,50a1,1,0,0,0,1-1V46.019L42,46v3a1,1,0,0,0,1,1Zm-9-3h2v2H50Z"/></g></svg>
