<svg height="512" viewBox="0 0 64 64" width="512" xmlns="http://www.w3.org/2000/svg"><g id="Destop"><path d="m40 36h6v3h-6z"/><path d="m35 41h16v1h-16z"/><path d="m29 13h28v17h-28z"/><path d="m60 33v-22a1 1 0 0 0 -1-1h-32a1 1 0 0 0 -1 1v22a1 1 0 0 0 1 1h32a1 1 0 0 0 1-1zm-2-1h-30a1 1 0 0 1 -1-1v-19a1 1 0 0 1 1-1h30a1 1 0 0 1 1 1v19a1 1 0 0 1 -1 1z"/><path d="m21 60h28a1 1 0 0 0 1-1v-10a1 1 0 0 0 -1-1h-28a1 1 0 0 0 -1 1v10a1 1 0 0 0 1 1zm25-10h2v2h-2zm0 3h2v2h-2zm0 3h2v2h-2zm-4-6h2v2h-2zm0 3h2v2h-2zm0 3h2v2h-2zm-4-6h2v2h-2zm0 3h2v2h-2zm-4-3h2v2h-2zm0 3h2v2h-2zm-4-3h2v2h-2zm0 3h2v2h-2zm0 3h10v2h-10zm-4-6h2v2h-2zm0 3h2v2h-2zm0 3h2v2h-2zm-4-6h2v2h-2zm0 3h2v2h-2zm0 3h2v2h-2z"/><path d="m20 5a1 1 0 0 0 -1-1h-14a1 1 0 0 0 -1 1v3h16z"/><path d="m20 16h-16v26h16zm-9 2h2v2h-2zm-4 0h2v2h-2zm5 20a3 3 0 1 1 3-3 3 3 0 0 1 -3 3zm5-18h-2v-2h2z"/><path d="m4 10h16v4h-16z"/><circle cx="12" cy="35" r="1"/><path d="m58 50a2 2 0 0 0 -2 2v6a2 2 0 0 0 4 0v-6a2 2 0 0 0 -2-2zm1 4a1 1 0 0 1 -2 0v-2a1 1 0 0 1 2 0z"/></g></svg>