<svg height="512" viewBox="0 0 64 64" width="512" xmlns="http://www.w3.org/2000/svg"><g id="Global_network" data-name="Global network"><path d="m31 24h-6.9a28.57 28.57 0 0 0 -1.07 7h7.97z"/><path d="m31 22v-6.882c-2.515.554-4.746 3.163-6.211 6.882z"/><path d="m31 33h-7.972a28.57 28.57 0 0 0 1.07 7h6.902z"/><path d="m33 22h6.211c-1.465-3.719-3.7-6.328-6.211-6.882z"/><path d="m48.949 33h-5.977a31.207 31.207 0 0 1 -.972 7h4.991a16.873 16.873 0 0 0 1.958-7z"/><path d="m31 42h-6.211c1.465 3.719 3.7 6.328 6.211 6.882z"/><path d="m33 31h7.972a28.57 28.57 0 0 0 -1.07-7h-6.902z"/><path d="m46.992 24h-4.992a31.207 31.207 0 0 1 .971 7h5.977a16.873 16.873 0 0 0 -1.956-7z"/><path d="m15.051 31h5.977a31.207 31.207 0 0 1 .972-7h-4.992a16.873 16.873 0 0 0 -1.957 7z"/><path d="m17.008 40h4.992a31.207 31.207 0 0 1 -.971-7h-5.978a16.873 16.873 0 0 0 1.957 7z"/><path d="m25.836 16.174a17.055 17.055 0 0 0 -7.553 5.826h4.33a18.007 18.007 0 0 1 3.223-5.826z"/><path d="m25.836 47.826a18.007 18.007 0 0 1 -3.223-5.826h-4.33a17.055 17.055 0 0 0 7.553 5.826z"/><path d="m45.717 22a17.055 17.055 0 0 0 -7.553-5.826 18.007 18.007 0 0 1 3.223 5.826z"/><path d="m33 40h6.9a28.57 28.57 0 0 0 1.07-7h-7.97z"/><path d="m45.717 42h-4.33a18.007 18.007 0 0 1 -3.223 5.826 17.055 17.055 0 0 0 7.553-5.826z"/><path d="m33 42v6.882c2.515-.554 4.746-3.163 6.211-6.882z"/><path d="m32.994 9.021.088-2c-.727-.031-1.461-.029-2.186 0l.086 2c.667-.027 1.344-.029 2.012 0z"/><path d="m27 9.546-.434-1.952c-.709.157-1.419.348-2.111.568l.606 1.906c.639-.201 1.288-.377 1.939-.522z"/><path d="m39.522 8.155c-.7-.22-1.406-.41-2.112-.566l-.431 1.953c.649.143 1.3.318 1.942.52z"/><path d="m45.447 10.932c-.608-.39-1.244-.76-1.89-1.1l-.928 1.772c.595.312 1.179.651 1.738 1.01z"/><path d="m21.354 11.614-.929-1.77c-.641.336-1.277.706-1.889 1.1l1.08 1.684c.564-.363 1.149-.704 1.738-1.014z"/><path d="m42.646 52.386.929 1.77c.641-.336 1.277-.706 1.889-1.1l-1.08-1.684c-.564.363-1.149.704-1.738 1.014z"/><path d="m18.553 53.068c.608.39 1.244.76 1.89 1.1l.928-1.772c-.595-.312-1.179-.651-1.738-1.01z"/><path d="m31.006 54.979-.088 2q.539.021 1.082.021c.37 0 .737-.008 1.1-.024l-.086-2c-.661.031-1.339.033-2.008.003z"/><path d="m37 54.454.434 1.952c.709-.157 1.419-.348 2.111-.568l-.606-1.906c-.634.201-1.288.377-1.939.522z"/><path d="m24.478 55.845c.695.22 1.406.41 2.112.566l.431-1.953c-.649-.143-1.3-.318-1.942-.52z"/><path d="m12.626 44.383c-.363-.566-.7-1.15-1.011-1.737l-1.771.928c.334.638.7 1.274 1.1 1.889z"/><path d="m7 32q0 .556.023 1.107l2-.088c-.016-.339-.023-.677-.023-1.019s.008-.666.021-1l-2-.085c-.013.363-.021.723-.021 1.085z"/><path d="m10.067 38.939c-.2-.628-.375-1.282-.523-1.943l-1.951.439c.161.716.352 1.426.568 2.107z"/><path d="m12.615 19.632-1.685-1.077c-.391.612-.76 1.247-1.1 1.889l1.771.928c.314-.591.654-1.172 1.014-1.74z"/><path d="m7.589 26.589 1.953.432c.145-.654.32-1.307.52-1.94l-1.906-.6c-.219.686-.409 1.396-.567 2.108z"/><path d="m57 32q0-.556-.023-1.107l-2 .088c.014.336.022.674.021 1.016s-.008.666-.021 1l2 .085c.015-.36.023-.72.023-1.082z"/><path d="m56.407 26.565c-.161-.716-.352-1.426-.568-2.107l-1.906.6c.2.628.375 1.282.523 1.943z"/><path d="m54.166 43.556-1.766-.928c-.31.591-.65 1.176-1.01 1.74l1.685 1.077c.386-.612.755-1.245 1.091-1.889z"/><path d="m56.411 37.411-1.953-.432c-.145.654-.32 1.307-.521 1.94l1.907.6c.218-.686.409-1.396.567-2.108z"/><path d="m51.374 19.617c.363.566.7 1.15 1.011 1.737l1.771-.928c-.334-.638-.7-1.274-1.1-1.889z"/><path d="m46.109 19.306 8.872-8.873a4.079 4.079 0 0 1 -.811-.6 4.079 4.079 0 0 1 -.6-.811l-8.87 8.87a19.248 19.248 0 0 1 1.409 1.414z"/><path d="m44.694 46.108 8.873 8.873a3.472 3.472 0 0 1 1.414-1.414l-8.872-8.873a19.068 19.068 0 0 1 -1.415 1.414z"/><path d="m19.306 17.892-8.873-8.873a4.079 4.079 0 0 1 -.6.811 4.079 4.079 0 0 1 -.811.6l8.872 8.873a19.068 19.068 0 0 1 1.412-1.411z"/><path d="m17.891 44.694-8.872 8.873a4.079 4.079 0 0 1 .811.6 4.079 4.079 0 0 1 .6.811l8.873-8.873a19.068 19.068 0 0 1 -1.412-1.411z"/><circle cx="57" cy="7" r="3"/><circle cx="57" cy="57" r="3"/><circle cx="7" cy="7" r="3"/><circle cx="7" cy="57" r="3"/></g></svg>