<svg height="512" viewBox="0 0 64 64" width="512" xmlns="http://www.w3.org/2000/svg"><g id="Hosting"><path d="m51 18a1.094 1.094 0 0 1 -.81-.356 1.03 1.03 0 0 1 -.265-.814 4.96 4.96 0 0 0 -3.3-5.554 5.045 5.045 0 0 0 -2.778-.142 1 1 0 0 1 -1.121-.524 12.009 12.009 0 0 0 -21.454 0 1 1 0 0 1 -1.121.524 5.036 5.036 0 0 0 -2.778.142 4.96 4.96 0 0 0 -3.3 5.554 1 1 0 0 1 -.983 1.17 9 9 0 1 0 -.09 18h6v-2h-2a1 1 0 0 1 -.864-1.5l7-12a1.041 1.041 0 0 1 1.728 0l7 12a1 1 0 0 1 -.864 1.5h-2v2h6v-13a1 1 0 0 1 1-1h8a1 1 0 0 1 1 1v13h6a9 9 0 0 0 0-18z"/><path d="m45.259 42h-1.259a1 1 0 0 1 -1-1v-17h-6v17a1 1 0 0 1 -1 1h-1.259l5.259 9.015z"/><path d="m27 50v-17a1 1 0 0 1 1-1h1.259l-5.259-9.015-5.259 9.015h1.259a1 1 0 0 1 1 1v17z"/><circle cx="55" cy="57" r="3"/><path d="m54 40h2v2h-2z"/><path d="m54 44h2v2h-2z"/><path d="m54 48h2v2h-2z"/><circle cx="9" cy="57" r="3"/><path d="m8 40h2v2h-2z"/><path d="m8 44h2v2h-2z"/><path d="m8 48h2v2h-2z"/></g></svg>