<?xml version="1.0"?>
<svg xmlns="http://www.w3.org/2000/svg" viewBox="0 0 64 64" width="512" height="512"><g id="Loading"><circle cx="23" cy="52" r="1"/><circle cx="30" cy="52" r="1"/><circle cx="46" cy="52" r="1"/><path d="M4,10H60V5a1,1,0,0,0-1-1H5A1,1,0,0,0,4,5ZM17,6h1a1,1,0,0,1,0,2H17a1,1,0,0,1,0-2ZM12,6h1a1,1,0,0,1,0,2H12a1,1,0,0,1,0-2ZM7,6H8A1,1,0,0,1,8,8H7A1,1,0,0,1,7,6Z"/><circle cx="16" cy="52" r="1"/><path d="M5,60H59a1,1,0,0,0,1-1V12H4V59A1,1,0,0,0,5,60ZM26,40.393a1,1,0,0,1-.366-1.367l2-3.464a1,1,0,1,1,1.732,1l-2,3.464A1,1,0,0,1,26,40.393Zm-3.026-4.027a1,1,0,1,1-1-1.732l3.463-2a1,1,0,1,1,1,1.732ZM42,54a1,1,0,0,1-2,0V51.5a.5.5,0,0,0-1,0V54a1,1,0,0,1-2,0V50a1,1,0,0,1,1-1,.972.972,0,0,1,.553.189A2.495,2.495,0,0,1,42,51.5Zm.393-18a1,1,0,0,1-1.367.366l-3.464-2a1,1,0,0,1,1-1.732l3.464,2A1,1,0,0,1,42.393,36ZM57,53a1,1,0,1,1-1,1A1,1,0,0,1,57,53Zm-3,0a1,1,0,1,1-1,1A1,1,0,0,1,54,53Zm-3,0a1,1,0,1,1-1,1A1,1,0,0,1,51,53Zm-3.713-3.7A1,1,0,0,1,49,50v5a3,3,0,0,1-3,3H45a1,1,0,0,1,0-2h1a1,1,0,0,0,1-1v-.184A2.966,2.966,0,0,1,46,55a3,3,0,1,1,1.287-5.7ZM44,30a1,1,0,0,1-1,1H39a1,1,0,0,1,0-2h4A1,1,0,0,1,44,30Zm-1.607-6a1,1,0,0,1-.367,1.366l-3.464,2a1,1,0,1,1-1-1.732l3.464-2A1,1,0,0,1,42.393,24Zm-7.759-.562,2-3.464a1,1,0,1,1,1.732,1l-2,3.464a1,1,0,0,1-1.732-1ZM35,35.2a1,1,0,0,1,1.366.366l2,3.464a1,1,0,1,1-1.732,1l-2-3.464A1,1,0,0,1,35,35.2ZM35,46a1,1,0,1,1-1,1A1,1,0,0,1,35,46Zm-1,4a1,1,0,0,1,2,0v4a1,1,0,0,1-2,0ZM31,19a1,1,0,0,1,2,0v4a1,1,0,0,1-2,0Zm0,18a1,1,0,0,1,2,0v4a1,1,0,0,1-2,0Zm0,12.184V48a1,1,0,0,1,2,0v6a1,1,0,0,1-1.713.7A2.964,2.964,0,0,1,30,55a3,3,0,0,1,0-6A2.966,2.966,0,0,1,31,49.184ZM26,19.607a1,1,0,0,1,1.366.367l2,3.464a1,1,0,1,1-1.732,1l-2-3.464A1,1,0,0,1,26,19.607ZM21.607,24a1,1,0,0,1,1.367-.366l3.463,2a1,1,0,1,1-1,1.732l-3.463-2A1,1,0,0,1,21.607,24ZM21,29h4a1,1,0,0,1,0,2H21a1,1,0,0,1,0-2Zm2,20a2.977,2.977,0,0,1,1.287.3A1,1,0,0,1,26,50v4a1,1,0,0,1-1.713.7A2.964,2.964,0,0,1,23,55a3,3,0,0,1,0-6Zm-7,0a3,3,0,1,1-3,3A3,3,0,0,1,16,49ZM7,48a1,1,0,0,1,2,0v5h3a1,1,0,0,1,0,2H8a1,1,0,0,1-1-1Z"/></g></svg>
