<svg height="512" viewBox="0 0 64 64" width="512" xmlns="http://www.w3.org/2000/svg"><g id="Login"><circle cx="44" cy="22" r="1"/><path d="m30 44h26v6h-26z"/><circle cx="16" cy="32" r="3"/><circle cx="37" cy="22" r="1"/><path d="m24 43a3 3 0 0 0 -3-3h-10a3 3 0 0 0 -3 3v7h16z"/><path d="m5 60h54a1 1 0 0 0 1-1v-47h-56v47a1 1 0 0 0 1 1zm46-40a1 1 0 0 1 1-1 .972.972 0 0 1 .553.189 2.495 2.495 0 0 1 3.447 2.311v2.5a1 1 0 0 1 -2 0v-2.5a.5.5 0 0 0 -1 0v2.5a1 1 0 0 1 -2 0zm-2-4a1 1 0 1 1 -1 1 1 1 0 0 1 1-1zm-1 4a1 1 0 0 1 2 0v4a1 1 0 0 1 -2 0zm-4-1a2.977 2.977 0 0 1 1.287.3 1 1 0 0 1 1.713.7v5a3 3 0 0 1 -3 3h-1a1 1 0 0 1 0-2h1a1 1 0 0 0 1-1v-.184a2.966 2.966 0 0 1 -1 .184 3 3 0 0 1 0-6zm-7 0a3 3 0 1 1 -3 3 3 3 0 0 1 3-3zm-9-1a1 1 0 0 1 2 0v5h3a1 1 0 0 1 0 2h-4a1 1 0 0 1 -1-1zm0 13a1 1 0 0 1 1-1h28a1 1 0 0 1 1 1v8a1 1 0 0 1 -1 1h-28a1 1 0 0 1 -1-1zm0 12a1 1 0 0 1 1-1h28a1 1 0 0 1 1 1v8a1 1 0 0 1 -1 1h-28a1 1 0 0 1 -1-1zm-12-16a5 5 0 1 1 -5 5 5.006 5.006 0 0 1 5-5zm-10 16a5.006 5.006 0 0 1 5-5h10a5.006 5.006 0 0 1 5 5v8a1 1 0 0 1 -1 1h-18a1 1 0 0 1 -1-1z"/><path d="m30 32h26v6h-26z"/><path d="m4 10h56v-5a1 1 0 0 0 -1-1h-54a1 1 0 0 0 -1 1zm13-4h1a1 1 0 0 1 0 2h-1a1 1 0 0 1 0-2zm-5 0h1a1 1 0 0 1 0 2h-1a1 1 0 0 1 0-2zm-5 0h1a1 1 0 0 1 0 2h-1a1 1 0 0 1 0-2z"/></g></svg>