<svg height="512" viewBox="0 0 64 64" width="512" xmlns="http://www.w3.org/2000/svg"><g id="Network"><path d="m6 43v13h20v-13a1 1 0 0 0 -1-1h-18a1 1 0 0 0 -1 1zm2 0h16a1 1 0 0 1 1 1v10a1 1 0 0 1 -1 1h-16a1 1 0 0 1 -1-1v-10a1 1 0 0 1 1-1z"/><path d="m9 45h14v8h-14z"/><path d="m4 59a1 1 0 0 0 1 1h22a1 1 0 0 0 1-1v-1h-24z"/><path d="m41 45h14v8h-14z"/><path d="m58 43a1 1 0 0 0 -1-1h-18a1 1 0 0 0 -1 1v13h20zm-1 11a1 1 0 0 1 -1 1h-16a1 1 0 0 1 -1-1v-10a1 1 0 0 1 1-1h16a1 1 0 0 1 1 1z"/><path d="m36 59a1 1 0 0 0 1 1h22a1 1 0 0 0 1-1v-1h-24z"/><path d="m44 5a1 1 0 0 0 -1-1h-22a1 1 0 0 0 -1 1v15h24zm-1 13a1 1 0 0 1 -1 1h-20a1 1 0 0 1 -1-1v-12a1 1 0 0 1 1-1h20a1 1 0 0 1 1 1z"/><path d="m23 7h18v10h-18z"/><path d="m46 23v-1h-28v1a1 1 0 0 0 1 1h26a1 1 0 0 0 1-1z"/><circle cx="32" cy="33" r="2"/><circle cx="48" cy="33" r="2"/><circle cx="16" cy="33" r="2"/><path d="m47 35.816v4.184h2v-4.184a2.809 2.809 0 0 1 -2 0z"/><path d="m15 35.816v4.184h2v-4.184a2.809 2.809 0 0 1 -2 0z"/><path d="m18.816 32a2.809 2.809 0 0 1 0 2h10.368a2.809 2.809 0 0 1 0-2z"/><path d="m34.816 32a2.809 2.809 0 0 1 0 2h10.368a2.809 2.809 0 0 1 0-2z"/><path d="m33 30.184v-4.184h-2v4.184a2.809 2.809 0 0 1 2 0z"/></g></svg>