<svg height="512" viewBox="0 0 64 64" width="512" xmlns="http://www.w3.org/2000/svg"><g id="No_connection" data-name="No connection"><path d="m23 24h2v4h-2z"/><path d="m26 48h12v6h-12z"/><path d="m39 17h2v11h-2z"/><path d="m47 12h2v16h-2z"/><path d="m32.868 22.5.132.231v-2.731h-2v2.735l.132-.231a1.04 1.04 0 0 1 1.736-.004z"/><path d="m32 25.016-6.277 10.984h12.553zm0 9.984a1 1 0 1 1 1-1 1 1 0 0 1 -1 1zm0-3a1 1 0 0 1 -1-1v-3a1 1 0 0 1 2 0v3a1 1 0 0 1 -1 1z"/><path d="m8 40h48v-32h-48zm37-29a1 1 0 0 1 1-1h4a1 1 0 0 1 1 1v18a1 1 0 0 1 -1 1h-4a1 1 0 0 1 -1-1zm-8 5a1 1 0 0 1 1-1h4a1 1 0 0 1 1 1v13a1 1 0 0 1 -1 1h-4a1 1 0 0 1 -1-1zm-8 3a1 1 0 0 1 1-1h4a1 1 0 0 1 1 1v7.235l5.868 10.265a1 1 0 0 1 -.868 1.5h-16a1 1 0 0 1 -.868-1.5l5.868-10.265zm-8 4a1 1 0 0 1 1-1h4a1 1 0 0 1 1 1v6a1 1 0 0 1 -1 1h-4a1 1 0 0 1 -1-1zm-8 2a1 1 0 0 1 1-1h4a1 1 0 0 1 1 1v4a1 1 0 0 1 -1 1h-4a1 1 0 0 1 -1-1z"/><path d="m60 45v-40a1 1 0 0 0 -1-1h-54a1 1 0 0 0 -1 1v40a1 1 0 0 0 1 1h54a1 1 0 0 0 1-1zm-2-4a1 1 0 0 1 -1 1h-50a1 1 0 0 1 -1-1v-34a1 1 0 0 1 1-1h50a1 1 0 0 1 1 1z"/><path d="m18 57v3h28v-3a1 1 0 0 0 -1-1h-26a1 1 0 0 0 -1 1z"/><path d="m15 26h2v2h-2z"/></g></svg>