<svg height="512" viewBox="0 0 64 64" width="512" xmlns="http://www.w3.org/2000/svg"><g id="Processor"><path d="m15 49h34v-34h-34zm27-14v2h-20v-2zm-20-2v-2h20v2zm9 14h-2v-4h2zm4 0h-2v-4h2zm4 0h-2v-4h2zm6-4h2v4h-2zm-2 4h-2v-4h2zm-1-18h-16v-2h16zm-9-12h2v4h-2zm-4 0h2v4h-2zm-4 0h2v4h-2zm-1 12h-2v-2h2zm-3-12h2v4h-2zm-4 0h2v4h-2z"/><path d="m50 11h-36a3 3 0 0 0 -3 3v36a3 3 0 0 0 3 3h36a3 3 0 0 0 3-3v-36a3 3 0 0 0 -3-3zm1 39a1 1 0 0 1 -1 1h-36a1 1 0 0 1 -1-1v-36a1 1 0 0 1 1-1h36a1 1 0 0 1 1 1z"/><path d="m31 2h2v7h-2z"/><path d="m37 2h2v7h-2z"/><path d="m43 2h2v7h-2z"/><path d="m49 2h2v7h-2z"/><path d="m13 2h2v7h-2z"/><path d="m19 2h2v7h-2z"/><path d="m25 2h2v7h-2z"/><path d="m31 55h2v7h-2z"/><path d="m37 55h2v7h-2z"/><path d="m43 55h2v7h-2z"/><path d="m49 55h2v7h-2z"/><path d="m13 55h2v7h-2z"/><path d="m19 55h2v7h-2z"/><path d="m25 55h2v7h-2z"/><path d="m57.5 28.5h2v7h-2z" transform="matrix(0 -1 1 0 26.5 90.5)"/><path d="m57.5 22.5h2v7h-2z" transform="matrix(0 -1 1 0 32.5 84.5)"/><path d="m57.5 16.5h2v7h-2z" transform="matrix(0 -1 1 0 38.5 78.5)"/><path d="m57.5 10.5h2v7h-2z" transform="matrix(0 -1 1 0 44.5 72.5)"/><path d="m57.5 46.5h2v7h-2z" transform="matrix(0 -1 1 0 8.5 108.5)"/><path d="m57.5 40.5h2v7h-2z" transform="matrix(0 -1 1 0 14.5 102.5)"/><path d="m57.5 34.5h2v7h-2z" transform="matrix(0 -1 1 0 20.5 96.5)"/><path d="m4.5 28.5h2v7h-2z" transform="matrix(0 -1 1 0 -26.5 37.5)"/><path d="m4.5 22.5h2v7h-2z" transform="matrix(0 -1 1 0 -20.5 31.5)"/><path d="m4.5 16.5h2v7h-2z" transform="matrix(0 -1 1 0 -14.5 25.5)"/><path d="m4.5 10.5h2v7h-2z" transform="matrix(0 -1 1 0 -8.5 19.5)"/><path d="m4.5 46.5h2v7h-2z" transform="matrix(0 -1 1 0 -44.5 55.5)"/><path d="m4.5 40.5h2v7h-2z" transform="matrix(0 -1 1 0 -38.5 49.5)"/><path d="m4.5 34.5h2v7h-2z" transform="matrix(0 -1 1 0 -32.5 43.5)"/></g></svg>