<?xml version="1.0"?>
<svg xmlns="http://www.w3.org/2000/svg" viewBox="0 0 64 64" width="512" height="512"><g id="Protection_network" data-name="Protection network"><circle cx="5" cy="59" r="2"/><circle cx="59" cy="22" r="2"/><circle cx="59" cy="30" r="2"/><circle cx="55" cy="6" r="2"/><circle cx="42" cy="5" r="2"/><circle cx="5" cy="49" r="2"/><circle cx="5" cy="39" r="2"/><path d="M18,36.812A19.085,19.085,0,0,0,28.865,53.983L32,55.468l3.134-1.485A19.086,19.086,0,0,0,46,36.812V22.057L32,19.11,18,22.057Zm5.636-2.176a1,1,0,0,1,1.414,0L30,39.586l9.192-9.192a1,1,0,0,1,1.414,1.414l-9.9,9.9a1,1,0,0,1-1.414,0L23.636,36.05A1,1,0,0,1,23.636,34.636Z"/><path d="M14,18.812v18A23.1,23.1,0,0,0,27.153,57.6L32,59.894l4.847-2.3A23.1,23.1,0,0,0,50,36.812v-18l-18-3.79Zm33.206,1.455a1,1,0,0,1,.794.979V36.812A21.094,21.094,0,0,1,35.989,55.791l-3.561,1.687a1,1,0,0,1-.856,0L28.01,55.791A21.1,21.1,0,0,1,16,36.812V21.246a1,1,0,0,1,.794-.979l15-3.158a1.021,1.021,0,0,1,.412,0Z"/><path d="M31,8.307v4.882l1-.211,1,.211v-3.5l6.874-2.577A2.982,2.982,0,0,1,39.03,5.3Z"/><path d="M52.044,6.436,46,10.465v5.461l2,.421V11.535l4.987-3.324A2.98,2.98,0,0,1,52.044,6.436Z"/><path d="M56,22a2.962,2.962,0,0,1,.184-1H52v2h4.184A2.962,2.962,0,0,1,56,22Z"/><path d="M56.184,29H52v2h4.184a2.809,2.809,0,0,1,0-2Z"/><path d="M7.816,40h4.4c-.086-.661-.141-1.328-.174-2H7.816a2.809,2.809,0,0,1,0,2Z"/><path d="M7.816,50h7.976c-.4-.648-.768-1.318-1.111-2H7.816a2.809,2.809,0,0,1,0,2Z"/><path d="M20.156,55.258c-.492-.452-.962-.924-1.416-1.412L14.586,58H7.816a2.809,2.809,0,0,1,0,2h7.6Z"/></g></svg>
