<svg height="512" viewBox="0 0 64 64" width="512" xmlns="http://www.w3.org/2000/svg"><g id="Router"><path d="m60 55v-12a1 1 0 0 0 -1-1h-54a1 1 0 0 0 -1 1v12a1 1 0 0 0 1 1h54a1 1 0 0 0 1-1zm-52-3h-2v-2h2zm0-4h-2v-2h2zm4 4h-2v-2h2zm0-4h-2v-2h2zm4 4h-2v-2h2zm0-4h-2v-2h2zm30 6h-28v-10h28zm7-2a3 3 0 1 1 3-3 3 3 0 0 1 -3 3z"/><path d="m54 58h-6v1a1 1 0 0 0 1 1h4a1 1 0 0 0 1-1z"/><circle cx="53" cy="49" r="1"/><path d="m20 46h24v6h-24z"/><path d="m16 58h-6v1a1 1 0 0 0 1 1h4a1 1 0 0 0 1-1z"/><path d="m49 40h4v-4l-.997-11.917-.955-20.037-1.049 20.001-1.002 12.036z"/><path d="m11 40h4v-4l-.997-11.917-.955-20.037-1.049 20.001-1.002 12.036z"/></g></svg>