<svg height="512" viewBox="0 0 64 64" width="512" xmlns="http://www.w3.org/2000/svg"><g id="Sattelite"><path d="m10.565 4.594h4v6h-4z" transform="matrix(.707 -.707 .707 .707 -1.69 11.109)"/><path d="m16.222 10.251h4v6h-4z" transform="matrix(.707 -.707 .707 .707 -4.033 16.767)"/><path d="m27.415 19.615-4.243-4.243-2.829 2.829 4.243 4.243 1.414-1.414z"/><path d="m11.151 52.849a5.011 5.011 0 0 0 -6.293-.636l6.929 6.929a5.01 5.01 0 0 0 -.636-6.293z"/><path d="m14.687 50.728-1.415-1.415-1.472 1.471a7.074 7.074 0 0 1 .764.651 7.074 7.074 0 0 1 .651.764z"/><path d="m11.979 14.494h4v6.001h-4z" transform="matrix(.707 -.707 .707 .707 -8.276 15.009)"/><path d="m21.758 25.272h-.001l1.415-1.414-4.243-4.243-2.828 2.829 4.242 4.243z"/><path d="m20.343 49.314-5.657-5.657-1.414 1.414a1 1 0 0 0 0 1.414l4.243 4.243a1 1 0 0 0 1.414 0z"/><path d="m18.343 37.657h4v12h-4z" transform="matrix(.707 -.707 .707 .707 -24.912 27.172)"/><path d="m25.707 23.979h2v4h-2z" transform="matrix(.707 -.707 .707 .707 -10.548 26.494)"/><path d="m6.322 8.837h4v6h-4z" transform="matrix(.707 -.707 .707 .707 -5.932 9.352)"/><path d="m40.142 40.828-1.414 1.415v-.001l-1.415 1.415 4.243 4.242 2.829-2.828z"/><path d="m19.803 28.697h23v8.001h-23z" transform="matrix(.707 -.707 .707 .707 -13.952 31.711)"/><path d="m44.506 47.02h4v6.001h-4z" transform="matrix(.707 -.707 .707 .707 -21.749 47.536)"/><path d="m54.406 48.435h4v6h-4z" transform="matrix(.707 -.707 .707 .707 -19.849 54.95)"/><path d="m50.163 52.678h4v6h-4z" transform="matrix(.707 -.707 .707 .707 -24.092 53.192)"/><path d="m37.021 35.293h2v4h-2z" transform="matrix(.707 -.707 .707 .707 -15.234 37.808)"/><path d="m48.749 42.778h4v6h-4z" transform="matrix(.707 -.707 .707 .707 -17.506 49.293)"/><path d="m40.263 15.737h4v12h-4z" transform="matrix(.707 -.707 .707 .707 -2.991 36.251)"/><path d="m42.97 38-1.414 1.414 4.243 4.243 2.829-2.829-4.243-4.243z"/><path d="m43.678 14.666-1.415 1.414 5.657 5.657 1.414-1.415a1 1 0 0 0 0-1.413l-4.242-4.243a1.023 1.023 0 0 0 -1.414 0z"/><path d="m52.163 10.423a1.022 1.022 0 0 0 -1.414 0l-3.536 3.535 2.829 2.829 3.535-3.536a1 1 0 0 0 0-1.414z"/><path d="m6.293 56.293-1.506 1.507a1 1 0 1 0 1.413 1.413l1.506-1.506z"/></g></svg>