<svg height="512" viewBox="0 0 64 64" width="512" xmlns="http://www.w3.org/2000/svg"><g id="Server"><circle cx="47" cy="32" r="1"/><circle cx="55" cy="32" r="1"/><path d="m9 40h46v2h-46z"/><circle cx="39" cy="32" r="1"/><path d="m9 22h46v2h-46z"/><path d="m9 58h46v2h-46z"/><path d="m60 55v-10a1 1 0 0 0 -1-1h-54a1 1 0 0 0 -1 1v10a1 1 0 0 0 1 1h54a1 1 0 0 0 1-1zm-50-1h-2v-8h2zm4 0h-2v-8h2zm4 0h-2v-8h2zm4 0h-2v-8h2zm4 0h-2v-8h2zm4 0h-2v-8h2zm9-1a3 3 0 1 1 3-3 3 3 0 0 1 -3 3zm8 0a3 3 0 1 1 3-3 3 3 0 0 1 -3 3zm8 0a3 3 0 1 1 3-3 3 3 0 0 1 -3 3z"/><circle cx="39" cy="50" r="1"/><circle cx="47" cy="50" r="1"/><circle cx="55" cy="50" r="1"/><path d="m60 37v-10a1 1 0 0 0 -1-1h-54a1 1 0 0 0 -1 1v10a1 1 0 0 0 1 1h54a1 1 0 0 0 1-1zm-50-1h-2v-8h2zm4 0h-2v-8h2zm4 0h-2v-8h2zm4 0h-2v-8h2zm4 0h-2v-8h2zm4 0h-2v-8h2zm9-1a3 3 0 1 1 3-3 3 3 0 0 1 -3 3zm8 0a3 3 0 1 1 3-3 3 3 0 0 1 -3 3zm8 0a3 3 0 1 1 3-3 3 3 0 0 1 -3 3z"/><circle cx="47" cy="14" r="1"/><circle cx="55" cy="14" r="1"/><circle cx="39" cy="14" r="1"/><path d="m59 8h-54a1 1 0 0 0 -1 1v10a1 1 0 0 0 1 1h54a1 1 0 0 0 1-1v-10a1 1 0 0 0 -1-1zm-49 10h-2v-8h2zm4 0h-2v-8h2zm4 0h-2v-8h2zm4 0h-2v-8h2zm4 0h-2v-8h2zm4 0h-2v-8h2zm9-1a3 3 0 1 1 3-3 3 3 0 0 1 -3 3zm8 0a3 3 0 1 1 3-3 3 3 0 0 1 -3 3zm8 0a3 3 0 1 1 3-3 3 3 0 0 1 -3 3z"/></g></svg>