<svg height="512" viewBox="0 0 64 64" width="512" xmlns="http://www.w3.org/2000/svg"><g id="Setting"><path d="m41.3 27.353a.993.993 0 0 1 .968-.258 5 5 0 0 0 6.237-5.529l-2.828 2.834a1 1 0 0 1 -.707.293h-2.83a1 1 0 0 1 -1-1v-2.833a1 1 0 0 1 .293-.707l2.832-2.832a4.989 4.989 0 0 0 -5.531 6.237 1 1 0 0 1 -.257.969l-6.354 6.354 2.826 2.826z"/><path d="m32.778 39.778h10v2h-10z" transform="matrix(.707 -.707 .707 .707 -17.77 38.661)"/><path d="m4 10h56v-5a1 1 0 0 0 -1-1h-54a1 1 0 0 0 -1 1zm13-4h1a1 1 0 0 1 0 2h-1a1 1 0 0 1 0-2zm-5 0h1a1 1 0 0 1 0 2h-1a1 1 0 0 1 0-2zm-5 0h1a1 1 0 0 1 0 2h-1a1 1 0 0 1 0-2z"/><path d="m44.971 52.213a3.072 3.072 0 0 0 4.242 0 3 3 0 0 0 0-4.242l-7.192-7.193-4.243 4.243zm-2.243-7.9 5.072 5.072a1 1 0 1 1 -1.415 1.415l-5.072-5.071a1 1 0 1 1 1.415-1.414z"/><path d="m36.364 37.949-12.849-12.849a1 1 0 0 1 -.22-.332l-1.243-2.478-5.439-3.017-.34.341 3.017 5.438 2.482 1.248a1 1 0 0 1 .329.219l12.849 12.845z"/><path d="m5 60h54a1 1 0 0 0 1-1v-47h-56v47a1 1 0 0 0 1 1zm7.323-16.4a7 7 0 0 1 6.177-1.926l7.965-7.965-5.657-5.659-2.691-1.35a1 1 0 0 1 -.426-.41l-3.532-6.368a1 1 0 0 1 .167-1.192l1.406-1.4a1 1 0 0 1 1.193-.168l6.368 3.531a1 1 0 0 1 .408.427l1.349 2.691 5.659 5.659 5.965-5.97a6.987 6.987 0 0 1 9.9-7.542 1 1 0 0 1 .273 1.608l-3.707 3.708v1.416h1.416l3.707-3.707a.985.985 0 0 1 .874-.279 1 1 0 0 1 .733.552 6.993 6.993 0 0 1 -7.542 9.9l-5.965 5.965 1.415 1.414 2.122-2.121a1 1 0 0 1 1.414 0l2.829 2.829a1 1 0 0 1 0 1.414l-.707.707 7.192 7.193a5 5 0 1 1 -7.07 7.07l-7.193-7.192-.707.707a1 1 0 0 1 -1.414 0l-2.829-2.829a1 1 0 0 1 0-1.414l2.122-2.121-1.415-1.415-7.966 7.965a6.989 6.989 0 0 1 -9.9 7.543 1 1 0 0 1 -.273-1.608l3.707-3.707v-1.416h-1.416l-3.707 3.707a1 1 0 0 1 -1.607-.273 6.992 6.992 0 0 1 1.363-7.974z"/><path d="m15.153 46.433a1 1 0 0 1 .707-.293h2.83a1 1 0 0 1 1 1v2.83a1 1 0 0 1 -.293.707l-2.831 2.831a5 5 0 0 0 5.534-6.237 1 1 0 0 1 .258-.968l8.354-8.354-2.826-2.826-8.354 8.354a1.006 1.006 0 0 1 -.968.258 4.988 4.988 0 0 0 -6.238 5.53z"/></g></svg>