<?xml version="1.0"?>
<svg xmlns="http://www.w3.org/2000/svg" viewBox="0 0 64 64" width="512" height="512"><g id="Sharing"><path d="M4,32A28.032,28.032,0,0,1,32,4a27.712,27.712,0,0,1,18.513,7H48a1,1,0,0,0,0,2h5a1,1,0,0,0,1-1V7a1,1,0,0,0-2,0V9.648A29.7,29.7,0,0,0,32,2,30,30,0,0,0,6.976,48.552a1,1,0,0,0,1.667-1.1A27.871,27.871,0,0,1,4,32Z"/><path d="M57.024,15.448a1,1,0,0,0-1.667,1.1A28,28,0,0,1,32,60a27.712,27.712,0,0,1-18.513-7H16a1,1,0,0,0,0-2H11a1,1,0,0,0-1,1v5a1,1,0,0,0,2,0V54.352A29.7,29.7,0,0,0,32,62,30,30,0,0,0,57.024,15.448Z"/><path d="M42,26a5,5,0,1,0-5-5A5.006,5.006,0,0,0,42,26Zm0-8a3,3,0,1,1-3,3A3,3,0,0,1,42,18Z"/><circle cx="42" cy="21" r="1"/><circle cx="42" cy="43" r="1"/><path d="M42,38a5,5,0,1,0,5,5A5.006,5.006,0,0,0,42,38Zm0,8a3,3,0,1,1,3-3A3,3,0,0,1,42,46Z"/><circle cx="17" cy="32" r="1"/><path d="M17,27a5,5,0,1,0,5,5A5.006,5.006,0,0,0,17,27Zm0,8a3,3,0,1,1,3-3A3,3,0,0,1,17,35Z"/><path d="M23.738,33.876a6.957,6.957,0,0,1-.807,1.83l12.331,5.418a6.957,6.957,0,0,1,.807-1.83Z"/><path d="M36.069,24.706a6.957,6.957,0,0,1-.807-1.83L22.931,28.294a6.957,6.957,0,0,1,.807,1.83Z"/></g></svg>
