<?xml version="1.0"?>
<svg xmlns="http://www.w3.org/2000/svg" viewBox="0 0 64 64" width="512" height="512"><g id="Smart_tech" data-name="Smart tech"><circle cx="32" cy="32" r="1"/><path d="M34.5,57h-5a.5.5,0,0,0,0,1h5a.5.5,0,0,0,0-1Z"/><path d="M49,54H15v4a3,3,0,0,0,3,3H46a3,3,0,0,0,3-3ZM34.5,60h-5a2.5,2.5,0,0,1,0-5h5a2.5,2.5,0,0,1,0,5Z"/><path d="M42,32a1.018,1.018,0,0,1-.947-.359,1,1,0,0,1-.165-.993A1.8,1.8,0,0,0,41,30a2,2,0,0,0-2-2,1.892,1.892,0,0,0-1.028.291,1,1,0,0,1-1.447-.415,5,5,0,0,0-9.05,0,1,1,0,0,1-1.447.415A1.892,1.892,0,0,0,25,28a2,2,0,0,0-2,2,1.8,1.8,0,0,0,.112.648A1,1,0,0,1,22.02,32,3,3,0,1,0,22,38H42a3,3,0,0,0,0-6Zm-6,1H34.816a2.746,2.746,0,0,1-.117.285l.837.837-1.414,1.414-.837-.837a2.746,2.746,0,0,1-.285.117V36H31V34.816a2.746,2.746,0,0,1-.285-.117l-.837.837-1.414-1.414.837-.837A2.746,2.746,0,0,1,29.184,33H28V31h1.184a2.746,2.746,0,0,1,.117-.285l-.837-.837,1.414-1.414.837.837A2.746,2.746,0,0,1,31,29.184V28h2v1.184a2.746,2.746,0,0,1,.285.117l.837-.837,1.414,1.414-.837.837a2.746,2.746,0,0,1,.117.285H36Z"/><path d="M49,12H15V52H49ZM42,40H22a5,5,0,0,1-1-9.9c0-.033,0-.066,0-.1a4,4,0,0,1,5.146-3.834,7,7,0,0,1,11.708,0A4,4,0,0,1,43,30c0,.034,0,.067,0,.1A5,5,0,0,1,42,40Z"/><path d="M49,8a3,3,0,0,0-3-3H18a3,3,0,0,0-3,3v2H49ZM31,8H29V6h2Zm4,0H33V6h2Z"/></g></svg>
