<?xml version="1.0"?>
<svg xmlns="http://www.w3.org/2000/svg" viewBox="0 0 64 64" width="512" height="512"><g id="Synchronization"><path d="M46.094,34.617a1,1,0,0,1-.217,1.09L44.344,37.24l1.416,1.416,1.533-1.533A1,1,0,0,1,49,37.83V40h2V37.83a1,1,0,0,1,1.707-.707l1.533,1.533,1.416-1.416-1.533-1.533A1,1,0,0,1,54.83,34H57V32H54.83a1,1,0,0,1-.707-1.707l1.533-1.533L54.24,27.344l-1.533,1.533A1,1,0,0,1,51,28.17V26H49v2.17a1,1,0,0,1-1.707.707L45.76,27.344,44.344,28.76l1.533,1.533A1,1,0,0,1,45.17,32H43v2h2.17A1,1,0,0,1,46.094,34.617ZM50,30a3,3,0,1,1-3,3A3,3,0,0,1,50,30Z"/><path d="M25.693,19.29a2.234,2.234,0,0,0-.169-.406,1,1,0,0,1,.179-1.171l2.373-2.373L26.66,13.924,24.287,16.3a1,1,0,0,1-1.171.179,2.306,2.306,0,0,0-.4-.168A1,1,0,0,1,22,15.35V12H20v3.35a1,1,0,0,1-.713.958,2.306,2.306,0,0,0-.4.168,1,1,0,0,1-1.171-.179L15.34,13.924,13.924,15.34,16.3,17.713a1,1,0,0,1,.179,1.171,2.234,2.234,0,0,0-.169.406,1,1,0,0,1-.957.71H12v2h3.35a1,1,0,0,1,.957.71,2.234,2.234,0,0,0,.169.406,1,1,0,0,1-.179,1.171L13.924,26.66l1.416,1.416L17.713,25.7a1,1,0,0,1,1.171-.179,2.306,2.306,0,0,0,.4.168A1,1,0,0,1,20,26.65V30h2V26.65a1,1,0,0,1,.713-.958,2.306,2.306,0,0,0,.4-.168,1,1,0,0,1,1.171.179l2.373,2.373,1.416-1.416L25.7,24.287a1,1,0,0,1-.179-1.171,2.234,2.234,0,0,0,.169-.406A1,1,0,0,1,26.65,22H30V20H26.65A1,1,0,0,1,25.693,19.29ZM21,25a4,4,0,1,1,4-4A4,4,0,0,1,21,25Z"/><circle cx="21" cy="21" r="2"/><circle cx="50" cy="33" r="1"/><path d="M5,46H38V42H7a1,1,0,0,1-1-1V7A1,1,0,0,1,7,6H51a1,1,0,0,1,1,1v9h2V5a1,1,0,0,0-1-1H5A1,1,0,0,0,4,5V45A1,1,0,0,0,5,46Z"/><path d="M59,50a1,1,0,0,0,1-1V46.02L40,46v3a1,1,0,0,0,1,1ZM49,47h2v2H49Z"/><path d="M60,19a1,1,0,0,0-1-1H41a1,1,0,0,0-1,1v1H60Z"/><path d="M43,57a1,1,0,0,0-1-1H16a1,1,0,0,0-1,1v3H43Z"/><path d="M60,44.02V22H40v6H38V19a3,3,0,0,1,3-3h9V8H8V40H38V38h2v6ZM41,31a1,1,0,0,1,1-1h.756l-.533-.533a1,1,0,0,1,0-1.414l2.83-2.83a1,1,0,0,1,1.414,0l.533.533V25a1,1,0,0,1,1-1h4a1,1,0,0,1,1,1v.756l.533-.533a1,1,0,0,1,1.414,0l2.83,2.83a1,1,0,0,1,0,1.414L57.244,30H58a1,1,0,0,1,1,1v4a1,1,0,0,1-1,1h-.756l.533.533a1,1,0,0,1,0,1.414l-2.83,2.83a1,1,0,0,1-1.414,0L53,40.244V41a1,1,0,0,1-1,1H48a1,1,0,0,1-1-1v-.756l-.533.533a1,1,0,0,1-1.414,0l-2.83-2.83a1,1,0,0,1,0-1.414L42.756,36H42a1,1,0,0,1-1-1ZM27,34H25V32h2Zm4,0H29V32h2Zm1-11a1,1,0,0,1-1,1H28.244L30.2,25.953a1,1,0,0,1,0,1.414l-2.83,2.83a1,1,0,0,1-1.414,0L24,28.244V31a1,1,0,0,1-1,1H19a1,1,0,0,1-1-1V28.244L16.047,30.2a1,1,0,0,1-1.414,0l-2.83-2.83a1,1,0,0,1,0-1.414L13.756,24H11a1,1,0,0,1-1-1V19a1,1,0,0,1,1-1h2.756L11.8,16.047a1,1,0,0,1,0-1.414l2.83-2.83a1,1,0,0,1,1.414,0L18,13.756V11a1,1,0,0,1,1-1h4a1,1,0,0,1,1,1v2.756L25.953,11.8a1,1,0,0,1,1.414,0l2.83,2.83a1,1,0,0,1,0,1.414L28.244,18H31a1,1,0,0,1,1,1Zm3,11H33V32h2Zm4,0H37V32h2Z"/><rect x="24" y="48" width="10" height="6"/></g></svg>
